<svg width="31" height="31" viewBox="0 0 31 31" fill="none" xmlns="http://www.w3.org/2000/svg">
<rect width="31" height="31" fill="black"/>
<path d="M7.856 20.5C7.42933 20.5 7.216 20.2867 7.216 19.86V9.94C7.216 9.51333 7.42933 9.3 7.856 9.3H11.024C12.3787 9.3 13.344 9.56133 13.92 10.084C14.5067 10.6067 14.8 11.2893 14.8 12.132C14.8 12.4947 14.72 12.836 14.56 13.156C14.4107 13.476 14.2027 13.7587 13.936 14.004C13.68 14.2387 13.392 14.4253 13.072 14.564L13.088 14.628C13.344 14.6813 13.5787 14.7667 13.792 14.884C14.016 15.0013 14.2187 15.1453 14.4 15.316C14.5813 15.476 14.7307 15.6627 14.848 15.876C14.976 16.0787 15.072 16.2973 15.136 16.532C15.2107 16.7667 15.248 17.0067 15.248 17.252C15.248 18.2867 14.9173 19.0867 14.256 19.652C13.6053 20.2173 12.6027 20.5 11.248 20.5H7.856ZM9.68 18.404H11.248C11.7173 18.404 12.08 18.292 12.336 18.068C12.592 17.844 12.72 17.524 12.72 17.108C12.72 16.692 12.5707 16.3827 12.272 16.18C11.9733 15.9667 11.5467 15.86 10.992 15.86H9.68V18.404ZM9.68 13.764H10.784C11.264 13.764 11.632 13.6467 11.888 13.412C12.144 13.1773 12.272 12.8947 12.272 12.564C12.272 12.1693 12.1493 11.876 11.904 11.684C11.6693 11.4813 11.3067 11.38 10.816 11.38H9.68V13.764Z" fill="url(#paint0_linear_349_288)"/>
<path d="M20.064 23.112C19.3707 23.112 18.768 23.0533 18.256 22.936C17.7547 22.8187 17.3493 22.6747 17.04 22.504C16.8053 22.376 16.6293 22.2427 16.512 22.104C16.3947 21.9653 16.336 21.8373 16.336 21.72C16.336 21.5493 16.3947 21.3573 16.512 21.144C16.6293 20.92 16.768 20.7227 16.928 20.552C17.088 20.3813 17.2213 20.296 17.328 20.296C17.3813 20.296 17.4453 20.312 17.52 20.344C17.5947 20.376 17.6853 20.4187 17.792 20.472C18.112 20.6427 18.448 20.7813 18.8 20.888C19.1627 20.984 19.504 21.032 19.824 21.032C20.2933 21.032 20.6667 20.952 20.944 20.792C21.232 20.6213 21.376 20.312 21.376 19.864C21.376 19.576 21.2907 19.3467 21.12 19.176C20.9493 18.9947 20.72 18.84 20.432 18.712C20.1547 18.584 19.8507 18.456 19.52 18.328C19.072 18.1467 18.6187 17.9067 18.16 17.608C17.7013 17.2987 17.3173 16.9253 17.008 16.488C16.7093 16.04 16.56 15.528 16.56 14.952C16.56 14.28 16.72 13.6987 17.04 13.208C17.36 12.7173 17.8027 12.3387 18.368 12.072C18.944 11.8053 19.6107 11.672 20.368 11.672C20.9227 11.672 21.4133 11.7307 21.84 11.848C22.2667 11.9547 22.5973 12.088 22.832 12.248C22.96 12.3333 23.056 12.424 23.12 12.52C23.1947 12.616 23.232 12.7067 23.232 12.792C23.232 12.9307 23.184 13.112 23.088 13.336C23.0027 13.56 22.8907 13.7573 22.752 13.928C22.6133 14.0987 22.48 14.184 22.352 14.184C22.2987 14.184 22.2133 14.168 22.096 14.136C21.9893 14.0933 21.8613 14.0507 21.712 14.008C21.5307 13.9547 21.3013 13.9067 21.024 13.864C20.7573 13.8107 20.4267 13.784 20.032 13.784C19.7013 13.784 19.4347 13.8747 19.232 14.056C19.0293 14.2267 18.928 14.4507 18.928 14.728C18.928 14.9733 19.008 15.1867 19.168 15.368C19.3387 15.5387 19.5627 15.6933 19.84 15.832C20.1173 15.9707 20.416 16.1093 20.736 16.248C21.184 16.44 21.6373 16.6853 22.096 16.984C22.5547 17.2827 22.9387 17.656 23.248 18.104C23.5573 18.5413 23.712 19.0693 23.712 19.688C23.712 20.7547 23.4133 21.592 22.816 22.2C22.2187 22.808 21.3013 23.112 20.064 23.112ZM20.16 24.296C19.8827 24.296 19.744 24.1627 19.744 23.896V11.112C19.744 10.8453 19.8827 10.712 20.16 10.712H20.24C20.5173 10.712 20.656 10.8453 20.656 11.112V23.896C20.656 24.1627 20.5173 24.296 20.24 24.296H20.16Z" fill="url(#paint1_linear_349_288)"/>
<defs>
<linearGradient id="paint0_linear_349_288" x1="4.5" y1="9" x2="14" y2="19" gradientUnits="userSpaceOnUse">
<stop stop-color="#EA2626"/>
<stop offset="0.53125" stop-color="#EF9610" stop-opacity="0.87"/>
<stop offset="1" stop-color="#F7F046" stop-opacity="0.88"/>
</linearGradient>
<linearGradient id="paint1_linear_349_288" x1="25.5" y1="8" x2="16" y2="23" gradientUnits="userSpaceOnUse">
<stop stop-color="#FE0303"/>
<stop offset="0.359375" stop-color="#E86609"/>
<stop offset="0.666667" stop-color="#F6CA5A"/>
<stop offset="1" stop-color="#FDE400"/>
</linearGradient>
</defs>
</svg>
